<svg xmlns="http://www.w3.org/2000/svg" version="1.1" xmlns:xlink="http://www.w3.org/1999/xlink" xmlns:svgjs="http://svgjs.dev/svgjs" width="1500" height="1500" viewBox="0 0 1500 1500"><rect width="1500" height="1500" fill="#000000"></rect><g transform="matrix(0.6666666666666666,0,0,0.6666666666666666,249.39393939393938,684.5245639195981)"><svg viewBox="0 0 396 52" data-background-color="#ffffff" preserveAspectRatio="xMidYMid meet" height="196" width="1500" xmlns="http://www.w3.org/2000/svg" xmlns:xlink="http://www.w3.org/1999/xlink"><g id="tight-bounds" transform="matrix(1,0,0,1,0.2400000000000091,0.056551093221116844)"><svg viewBox="0 0 395.52 51.886897813557766" height="51.886897813557766" width="395.52"><g><svg viewBox="0 0 395.52 51.886897813557766" height="51.886897813557766" width="395.52"><g><svg viewBox="0 0 395.52 51.886897813557766" height="51.886897813557766" width="395.52"><g id="textblocktransform"><svg viewBox="0 0 395.52 51.886897813557766" height="51.886897813557766" width="395.52" id="textblock"><g><svg viewBox="0 0 395.52 51.886897813557766" height="51.886897813557766" width="395.52"><g transform="matrix(1,0,0,1,0,0)"><svg width="395.52" viewBox="4.49 -35.01 263.85 35.01" height="51.886897813557766" data-palette-color="#dbee49"><g class="wordmark-text-0" data-fill-palette-color="primary" id="text-0"><path d="M9.5-5L22.29-5Q25.78-5 27.66-6.88 29.54-8.76 29.54-12.26L29.54-12.26 29.54-22.75Q29.54-24.46 29.05-25.81 28.56-27.15 27.62-28.09 26.68-29.03 25.34-29.52 24-30 22.29-30L22.29-30 9.5-30 9.5-5ZM22.29 0L4.49 0 4.49-35.01 22.29-35.01Q25.1-35.01 27.36-34.14 29.61-33.28 31.21-31.68 32.81-30.08 33.68-27.81 34.55-25.54 34.55-22.75L34.55-22.75 34.55-12.26Q34.55-9.47 33.68-7.2 32.81-4.93 31.21-3.33 29.61-1.73 27.36-0.87 25.1 0 22.29 0L22.29 0ZM41.77-30L41.77-35.01 69.26-35.01 69.26-33.5 49.41-5 69.26-5 69.26 0 41.06 0 41.06-1.49 60.91-30 41.77-30Z" fill="#ffffff" data-fill-palette-color="primary"></path><path d="M88.74-5L88.74-30Q88.74-31.03 89.13-31.95 89.52-32.86 90.2-33.53 90.89-34.2 91.8-34.61 92.72-35.01 93.74-35.01L93.74-35.01 112.74-35.01Q113.76-35.01 114.68-34.61 115.6-34.2 116.28-33.53 116.96-32.86 117.35-31.95 117.74-31.03 117.74-30L117.74-30 117.74-25.49 112.74-25.49 112.74-30 93.74-30 93.74-5 112.74-5 112.74-13.5 103.24-13.5 103.24-18.51 117.74-18.51 117.74-5Q117.74-3.98 117.35-3.06 116.96-2.15 116.28-1.46 115.6-0.78 114.68-0.39 113.76 0 112.74 0L112.74 0 93.74 0Q92.72 0 91.8-0.39 90.89-0.78 90.2-1.46 89.52-2.15 89.13-3.06 88.74-3.98 88.74-5L88.74-5ZM137.22-35.01L142.23-35.01 155.73 0 150.72 0 147.62-8.06 131.83-8.06 128.73 0 123.72 0 137.22-35.01ZM139.74-28.49L133.73-13.06 145.7-13.06 139.74-28.49ZM181.29 0L179.8 0 166.74-25.66 166.74 0 161.73 0 161.73-35.01 167.2-35.01 180.53-8.64 193.89-35.01 199.33-35.01 199.33 0 194.35 0 194.35-25.66 181.29 0ZM208.34 0L208.34-35.01 233.85-35.01 233.85-30 213.34-30 213.34-20 230.85-20 230.85-14.99 213.34-14.99 213.34-5 233.85-5 233.85 0 208.34 0ZM263.34-14.99L246.35-14.99Q245.32-14.99 244.41-15.39 243.49-15.8 242.81-16.47 242.12-17.14 241.73-18.05 241.34-18.97 241.34-20L241.34-20 241.34-30Q241.34-31.03 241.73-31.95 242.12-32.86 242.81-33.53 243.49-34.2 244.41-34.61 245.32-35.01 246.35-35.01L246.35-35.01 263.34-35.01Q264.36-35.01 265.28-34.61 266.2-34.2 266.88-33.53 267.56-32.86 267.95-31.95 268.34-31.03 268.34-30L268.34-30 268.34-25.49 263.34-25.49 263.34-30 246.35-30 246.35-20 263.34-20Q264.36-20 265.28-19.6 266.2-19.21 266.88-18.53 267.56-17.85 267.95-16.93 268.34-16.02 268.34-14.99L268.34-14.99 268.34-5Q268.34-3.98 267.95-3.06 267.56-2.15 266.88-1.46 266.2-0.78 265.28-0.39 264.36 0 263.34 0L263.34 0 245.86 0Q244.83 0 243.92-0.39 243-0.78 242.32-1.46 241.64-2.15 241.24-3.06 240.85-3.98 240.85-5L240.85-5 240.85-9.5 245.86-9.5 245.86-5 263.34-5 263.34-14.99Z" fill="#ffffff" data-fill-palette-color="primary"></path></g></svg></g></svg></g></svg></g></svg></g><g></g></svg></g><defs></defs></svg><rect width="395.52" height="51.886897813557766" fill="none" stroke="none" visibility="hidden"></rect></g></svg></g></svg>